<svg width="47" height="47" viewBox="0 0 47 47" fill="none" xmlns="http://www.w3.org/2000/svg">
<path d="M33.45 10.7905C33.3408 10.2941 33.0389 9.86146 32.6107 9.58763C32.1826 9.31381 31.6632 9.22124 31.1668 9.3303L16.1907 12.6228C15.9413 12.6731 15.7043 12.7726 15.4937 12.9155C15.2831 13.0584 15.103 13.2418 14.964 13.455C14.8251 13.6682 14.7299 13.9069 14.6842 14.1573C14.6385 14.4077 14.6431 14.6646 14.6977 14.9132C14.7524 15.1618 14.856 15.3969 15.0025 15.605C15.149 15.8131 15.3355 15.99 15.5511 16.1252C15.7667 16.2605 16.0071 16.3515 16.2582 16.3928C16.5093 16.4342 16.7661 16.4251 17.0137 16.3662L27.4708 14.0672L13.7952 35.4505C13.5213 35.8787 13.4288 36.3982 13.5379 36.8947C13.6471 37.3912 13.949 37.8239 14.3772 38.0978C14.8055 38.3717 15.325 38.4642 15.8214 38.3551C16.3179 38.2459 16.7507 37.944 17.0246 37.5158L30.7001 16.1325L32.9991 26.5895C33.1156 27.0784 33.4193 27.502 33.8451 27.7691C34.2708 28.0362 34.7844 28.1254 35.2752 28.0175C35.7661 27.9096 36.1949 27.6132 36.4693 27.1922C36.7438 26.7712 36.8419 26.2592 36.7425 25.7666L33.45 10.7905Z" fill="white"/>
</svg>
