<svg width="75" height="81" viewBox="0 0 75 81" fill="none" xmlns="http://www.w3.org/2000/svg">
<path d="M57.9043 7.34961C57.8652 7.56445 57.7871 7.69141 57.6699 7.73047C57.5723 7.75 57.4746 7.80859 57.377 7.90625C57.1816 7.96484 57.0352 8.00391 56.9375 8.02344C56.8398 8.04297 56.752 8.05273 56.6738 8.05273C56.5957 8.05273 56.5078 8.05273 56.4102 8.05273C56.3125 8.0332 56.1758 8.00391 56 7.96484C55.9414 7.94531 55.873 7.93555 55.7949 7.93555C55.7363 7.93555 55.6777 7.92578 55.6191 7.90625C55.5605 8.04297 55.541 8.16992 55.5605 8.28711C55.5801 8.4043 55.5801 8.53125 55.5605 8.66797C55.5996 8.88281 55.5898 9.01953 55.5312 9.07812C55.4922 9.11719 55.4727 9.18555 55.4727 9.2832C55.4531 9.41992 55.4629 9.55664 55.502 9.69336C55.541 9.81055 55.5605 9.94727 55.5605 10.1035C55.5605 10.1621 55.5508 10.2207 55.5312 10.2793C55.5117 10.3379 55.502 10.4063 55.502 10.4844C55.5215 10.543 55.541 10.6016 55.5605 10.6602C55.5996 10.6992 55.6191 10.748 55.6191 10.8066C55.6191 10.8848 55.6094 10.9629 55.5898 11.041C55.5703 11.1191 55.5605 11.207 55.5605 11.3047C55.5605 11.3828 55.5703 11.4512 55.5898 11.5098C55.6094 11.5684 55.6191 11.6367 55.6191 11.7148C55.6191 11.7344 55.6094 11.793 55.5898 11.8906C55.5703 11.9883 55.5508 12.0859 55.5312 12.1836C55.5117 12.2813 55.4824 12.3789 55.4434 12.4766C55.4238 12.5742 55.4141 12.6328 55.4141 12.6523C55.375 12.75 55.3359 12.8379 55.2969 12.916C55.2773 12.9941 55.2969 13.0918 55.3555 13.209C55.3555 13.3652 55.3457 13.5215 55.3262 13.6777C55.3066 13.8145 55.2969 13.9609 55.2969 14.1172C55.2969 14.2734 55.2773 14.3906 55.2383 14.4688C55.1992 14.5469 55.1797 14.6348 55.1797 14.7324C55.2969 15.0254 55.3457 15.2402 55.3262 15.377C55.3262 15.4941 55.375 15.6016 55.4727 15.6992C55.4336 15.8555 55.4336 16.0117 55.4727 16.168C55.5117 16.3242 55.5215 16.4805 55.502 16.6367C55.4824 16.8516 55.4824 16.9688 55.502 16.9883C55.5215 17.0078 55.541 17.0371 55.5605 17.0762C55.5996 17.1348 55.6094 17.2324 55.5898 17.3691C55.5898 17.4863 55.5996 17.584 55.6191 17.6621C55.6777 17.9551 55.7266 18.2383 55.7656 18.5117C55.8242 18.7852 55.834 19.0684 55.7949 19.3613C55.7754 19.498 55.7363 19.6055 55.6777 19.6836C55.6387 19.7617 55.6387 19.8789 55.6777 20.0352C55.7168 20.1914 55.7168 20.2988 55.6777 20.3574C55.6387 20.3965 55.6191 20.4453 55.6191 20.5039C55.6191 20.6797 55.6289 20.8555 55.6484 21.0312C55.6875 21.1875 55.6777 21.3438 55.6191 21.5C55.502 21.7539 55.4531 21.9492 55.4727 22.0859C55.4922 22.2031 55.4922 22.3105 55.4727 22.4082C55.4531 22.4863 55.4238 22.5547 55.3848 22.6133C55.3457 22.6523 55.3164 22.7012 55.2969 22.7598C55.2969 22.7793 55.2773 22.8867 55.2383 23.082C55.2188 23.1602 55.1992 23.2676 55.1797 23.4043C55.1992 23.4434 55.1797 23.5117 55.1211 23.6094C55.0625 23.707 55.0332 23.7852 55.0332 23.8438C54.9941 23.9609 54.9746 24.0879 54.9746 24.2246C54.9941 24.3418 54.9941 24.4688 54.9746 24.6055C54.9551 24.7031 54.916 24.8008 54.8574 24.8984C54.8184 24.9766 54.8184 25.0645 54.8574 25.1621C54.7598 25.3184 54.6816 25.4551 54.623 25.5723C54.5645 25.6895 54.5352 25.8359 54.5352 26.0117C54.4375 26.0508 54.3789 26.1191 54.3594 26.2168C54.3594 26.2949 54.3398 26.373 54.3008 26.4512C54.2617 26.5293 54.2129 26.5879 54.1543 26.627C54.1152 26.666 54.0762 26.7344 54.0371 26.832C53.9785 27.0664 53.9297 27.1934 53.8906 27.2129C53.8711 27.2129 53.8516 27.2324 53.832 27.2715C53.793 27.3496 53.7539 27.4277 53.7148 27.5059C53.6758 27.584 53.6367 27.6523 53.5977 27.7109C53.4609 27.8672 53.3926 27.9648 53.3926 28.0039C53.3926 28.0234 53.373 28.0527 53.334 28.0918C53.2949 28.1504 53.2363 28.209 53.1582 28.2676C53.0996 28.3066 53.0508 28.3555 53.0117 28.4141C52.8555 28.6484 52.7188 28.8047 52.6016 28.8828C52.5039 28.9414 52.4355 29.0293 52.3965 29.1465C52.2598 29.1855 52.1328 29.2441 52.0156 29.3223C51.918 29.4004 51.8105 29.4785 51.6934 29.5566C51.459 29.7129 51.3027 29.8008 51.2246 29.8203C51.1465 29.8398 51.0684 29.8691 50.9902 29.9082C50.9121 29.9473 50.8438 29.9863 50.7852 30.0254C50.7461 30.084 50.6875 30.1328 50.6094 30.1719C50.5312 30.2109 50.4434 30.2207 50.3457 30.2012C50.248 30.2012 50.1504 30.2109 50.0527 30.2305C49.8184 30.2695 49.5742 30.3184 49.3203 30.377C49.0859 30.4551 48.8418 30.4941 48.5879 30.4941C48.334 30.5137 48.0801 30.4941 47.8262 30.4355C47.5723 30.377 47.3184 30.3965 47.0645 30.4941C46.8496 30.3379 46.6055 30.25 46.332 30.2305C46.0586 30.2109 45.8047 30.1523 45.5703 30.0547C45.5117 30.0352 45.4531 30.0059 45.3945 29.9668C45.3555 29.9277 45.3066 29.8887 45.248 29.8496C45.1895 29.8105 45.1211 29.791 45.043 29.791C44.9844 29.791 44.9258 29.7715 44.8672 29.7324C44.75 29.6348 44.6328 29.5469 44.5156 29.4688C44.3984 29.3906 44.2812 29.3027 44.1641 29.2051C44.0469 29.127 43.9297 29.0488 43.8125 28.9707C43.7148 28.8926 43.6367 28.8242 43.5781 28.7656C43.4609 28.6484 43.3828 28.5996 43.3438 28.6191C43.3047 28.6387 43.2656 28.6289 43.2266 28.5898C43.1094 28.375 43.002 28.2383 42.9043 28.1797C42.8066 28.1211 42.7188 28.043 42.6406 27.9453C42.582 27.8867 42.4941 27.7793 42.377 27.623C42.2598 27.4473 42.1328 27.2715 41.9961 27.0957C41.8594 26.9004 41.7324 26.7148 41.6152 26.5391C41.5176 26.3633 41.459 26.2461 41.4395 26.1875C41.4004 26.1094 41.3906 26.041 41.4102 25.9824C41.4297 25.9043 41.4199 25.8262 41.3809 25.748C41.2637 25.5332 41.2148 25.416 41.2344 25.3965C41.2539 25.377 41.2637 25.3477 41.2637 25.3086C41.2637 25.1523 41.2441 24.957 41.2051 24.7227C41.166 24.4688 41.0977 24.2637 41 24.1074C41.1758 23.0918 41.2637 22.0566 41.2637 21.002C41.2051 20.9238 41.1758 20.8359 41.1758 20.7383C41.1758 20.6406 41.1855 20.543 41.2051 20.4453C41.2832 20.4648 41.3809 20.416 41.498 20.2988C41.6152 20.1816 41.7617 20.1816 41.9375 20.2988C42.1133 20.416 42.2207 20.582 42.2598 20.7969C42.2598 20.8359 42.2402 20.9043 42.2012 21.002C42.1621 21.0996 42.1426 21.1875 42.1426 21.2656C42.1426 21.3633 42.1523 21.4512 42.1719 21.5293C42.1914 21.6074 42.2012 21.6855 42.2012 21.7637C42.1816 22.1348 42.1426 22.5449 42.084 22.9941C42.0254 23.4238 42.0449 23.8145 42.1426 24.166C42.1621 24.2246 42.1816 24.2832 42.2012 24.3418C42.2207 24.3809 42.2402 24.4297 42.2598 24.4883C42.2793 24.5859 42.2793 24.6738 42.2598 24.752C42.2402 24.8105 42.2402 24.8887 42.2598 24.9863C42.3574 25.2207 42.4062 25.416 42.4062 25.5723C42.4062 25.709 42.4258 25.8262 42.4648 25.9238C42.4648 25.9434 42.4941 26.002 42.5527 26.0996C42.6309 26.1777 42.709 26.2754 42.7871 26.3926C42.8652 26.5293 42.9629 26.6758 43.0801 26.832C43.2168 26.9492 43.3047 27.0664 43.3438 27.1836C43.4414 27.2812 43.5391 27.3984 43.6367 27.5352C43.7539 27.6523 43.8809 27.7695 44.0176 27.8867C44.1543 28.0039 44.2812 28.1113 44.3984 28.209C44.5352 28.3066 44.6426 28.375 44.7207 28.4141C44.9355 28.5703 45.1113 28.6777 45.248 28.7363C45.4043 28.7949 45.4824 28.8535 45.4824 28.9121C45.6973 28.9121 45.8145 28.9414 45.834 29C45.8535 29.0586 45.9121 29.1074 46.0098 29.1465C46.1074 29.1855 46.2148 29.1953 46.332 29.1758C46.4492 29.1758 46.5664 29.1953 46.6836 29.2344C46.8203 29.2734 46.9473 29.3223 47.0645 29.3809C47.2012 29.459 47.3477 29.5078 47.5039 29.5273C47.582 29.5273 47.6504 29.5176 47.709 29.498C47.7871 29.4785 47.8652 29.4688 47.9434 29.4688C48.0605 29.4688 48.168 29.4883 48.2656 29.5273C48.3828 29.5664 48.5098 29.5664 48.6465 29.5273C48.7637 29.4297 48.8516 29.3809 48.9102 29.3809C48.9688 29.4004 49.0273 29.4102 49.0859 29.4102C49.2617 29.3906 49.3984 29.3711 49.4961 29.3516C49.5938 29.332 49.6816 29.3027 49.7598 29.2637C49.8574 29.2441 49.9551 29.2148 50.0527 29.1758C50.1504 29.1367 50.2773 29.0879 50.4336 29.0293C50.5312 28.9902 50.6289 28.9609 50.7266 28.9414C50.8242 28.9023 50.9121 28.8438 50.9902 28.7656C51.0879 28.7266 51.1172 28.668 51.0781 28.5898C51.0391 28.5117 51.0488 28.4531 51.1074 28.4141C51.1465 28.375 51.1855 28.3555 51.2246 28.3555C51.2832 28.3359 51.332 28.2871 51.3711 28.209C51.4297 28.0137 51.4688 27.8184 51.4883 27.623C51.5078 27.4082 51.5176 27.2031 51.5176 27.0078C51.5566 26.7734 51.5762 26.5879 51.5762 26.4512C51.5762 26.2949 51.5762 26.1387 51.5762 25.9824C51.5762 25.8848 51.5664 25.7969 51.5469 25.7188C51.5273 25.6211 51.5176 25.5234 51.5176 25.4258C51.6152 25.1914 51.6543 25.0449 51.6348 24.9863C51.6348 24.9277 51.6348 24.8691 51.6348 24.8105C51.6543 24.7129 51.6738 24.6152 51.6934 24.5176C51.7324 24.4199 51.752 24.3223 51.752 24.2246C51.752 24.1074 51.7324 24.0195 51.6934 23.9609C51.6543 23.8828 51.6738 23.7852 51.752 23.668C51.6543 23.5117 51.6543 23.3555 51.752 23.1992C51.752 23.082 51.7227 22.9746 51.6641 22.877C51.625 22.7598 51.6152 22.6426 51.6348 22.5254C51.6738 22.3301 51.6738 22.2031 51.6348 22.1445C51.6152 22.0664 51.5957 21.9785 51.5762 21.8809C51.5566 21.6855 51.5566 21.5 51.5762 21.3242C51.6152 21.1484 51.6348 20.9727 51.6348 20.7969C51.6543 20.582 51.6445 20.377 51.6055 20.1816C51.5859 19.9668 51.5762 19.752 51.5762 19.5371C51.5762 19.3223 51.5957 19.1074 51.6348 18.8926C51.6738 18.6582 51.6934 18.4336 51.6934 18.2188C51.6934 18.1016 51.6836 17.9844 51.6641 17.8672C51.6445 17.75 51.6348 17.6328 51.6348 17.5156C51.6348 17.418 51.6445 17.3301 51.6641 17.252C51.6836 17.1543 51.6934 17.0566 51.6934 16.959V16.1973C51.6934 16.1387 51.6836 16.0898 51.6641 16.0508C51.6445 15.9922 51.6348 15.9336 51.6348 15.875C51.6738 15.5039 51.6836 15.2402 51.6641 15.084C51.6445 14.9082 51.6543 14.7129 51.6934 14.498C51.7129 14.4395 51.7129 14.3809 51.6934 14.3223C51.6738 14.2637 51.6543 14.1953 51.6348 14.1172C51.5957 13.8633 51.5762 13.6094 51.5762 13.3555C51.5957 13.1016 51.6152 12.8477 51.6348 12.5938C51.6738 12.3984 51.6934 12.252 51.6934 12.1543C51.6934 12.0957 51.6738 12.0371 51.6348 11.9785C51.6152 11.9199 51.5957 11.8516 51.5762 11.7734C51.6152 11.3047 51.6152 10.8652 51.5762 10.4551C51.5371 10.0254 51.5078 9.5957 51.4883 9.16602C51.4688 8.95117 51.459 8.74609 51.459 8.55078C51.4785 8.35547 51.4688 8.16016 51.4297 7.96484C51.1562 7.98437 50.873 8.02344 50.5801 8.08203C50.2871 8.12109 50.0039 8.13086 49.7305 8.11133C49.6719 8.11133 49.6133 8.10156 49.5547 8.08203C49.5156 8.0625 49.4668 8.0625 49.4082 8.08203C49.291 8.08203 49.1836 8.11133 49.0859 8.16992C49.0078 8.20898 48.8906 8.20898 48.7344 8.16992C48.6367 8.05273 48.5391 7.92578 48.4414 7.78906C48.3438 7.65234 48.3926 7.50586 48.5879 7.34961C48.8809 7.21289 49.1445 7.13477 49.3789 7.11523C49.6328 7.0957 49.8574 7.14453 50.0527 7.26172C50.209 7.22266 50.375 7.19336 50.5508 7.17383C50.7266 7.1543 50.8926 7.125 51.0488 7.08594C51.166 7.10547 51.293 7.0957 51.4297 7.05664C51.5859 7.01758 51.7129 6.98828 51.8105 6.96875C52.2012 6.94922 52.5918 6.95898 52.9824 6.99805C53.373 7.03711 53.7637 7.01758 54.1543 6.93945C54.1543 6.93945 54.2324 6.93945 54.3887 6.93945C54.5449 6.91992 54.7109 6.91016 54.8867 6.91016C55.082 6.89063 55.2578 6.88086 55.4141 6.88086C55.5703 6.88086 55.6582 6.88086 55.6777 6.88086C55.8145 6.88086 55.9414 6.91016 56.0586 6.96875C56.1758 7.00781 56.3027 7.02734 56.4395 7.02734C56.6738 7.00781 56.8008 7.01758 56.8203 7.05664C56.8594 7.07617 56.8984 7.08594 56.9375 7.08594C57.0547 7.10547 57.1719 7.0957 57.2891 7.05664C57.4062 6.99805 57.5234 6.98828 57.6406 7.02734C57.7578 7.18359 57.8457 7.29102 57.9043 7.34961ZM52.6309 8.11133C52.5918 8.24805 52.5527 8.375 52.5137 8.49219C52.4941 8.60938 52.4746 8.72656 52.4551 8.84375C52.4551 8.90234 52.4648 8.96094 52.4844 9.01953C52.5039 9.05859 52.5137 9.10742 52.5137 9.16602C52.5137 9.30273 52.4941 9.41016 52.4551 9.48828C52.4355 9.56641 52.4551 9.67383 52.5137 9.81055C52.4355 10.0059 52.4258 10.1621 52.4844 10.2793C52.5625 10.3965 52.6113 10.5332 52.6309 10.6895C52.6504 10.8652 52.6406 11.041 52.6016 11.2168C52.582 11.3926 52.5918 11.5586 52.6309 11.7148C52.6699 11.8516 52.6699 11.9395 52.6309 11.9785C52.6113 12.0176 52.6113 12.0762 52.6309 12.1543C52.6699 12.5254 52.6699 12.7988 52.6309 12.9746C52.5918 13.1504 52.6211 13.3164 52.7188 13.4727C52.6016 13.5898 52.5723 13.707 52.6309 13.8242C52.6895 13.9219 52.7188 14.0391 52.7188 14.1758C52.6797 14.3906 52.6602 14.5469 52.6602 14.6445C52.6797 14.7422 52.6895 14.8398 52.6895 14.9375C52.6699 15.0938 52.6797 15.2598 52.7188 15.4355C52.7578 15.5918 52.7773 15.7383 52.7773 15.875C52.6406 16.2852 52.6113 16.6465 52.6895 16.959C52.7871 17.252 52.7676 17.5645 52.6309 17.8965C52.7285 17.9941 52.7578 18.0918 52.7188 18.1895C52.6797 18.2871 52.6699 18.3848 52.6895 18.4824C52.6699 18.6387 52.6699 18.7461 52.6895 18.8047C52.709 18.8633 52.7188 18.9219 52.7188 18.9805C52.6797 19.1562 52.6699 19.2734 52.6895 19.332C52.7285 19.3906 52.7383 19.459 52.7188 19.5371C52.7188 19.6152 52.6992 19.6934 52.6602 19.7715C52.6406 19.8301 52.6309 19.8984 52.6309 19.9766C52.6113 20.0938 52.5918 20.2207 52.5723 20.3574C52.5527 20.4746 52.5527 20.6016 52.5723 20.7383C52.5723 20.8164 52.582 20.8945 52.6016 20.9727C52.6406 21.0312 52.6699 21.0996 52.6895 21.1777C52.6504 21.3535 52.6504 21.4512 52.6895 21.4707C52.748 21.4902 52.748 21.5195 52.6895 21.5586C52.6309 21.6562 52.6211 21.7344 52.6602 21.793C52.6992 21.832 52.7188 21.9004 52.7188 21.998C52.7383 22.0762 52.7285 22.1445 52.6895 22.2031C52.6699 22.2617 52.6992 22.3301 52.7773 22.4082C52.7773 22.8184 52.7676 23.082 52.748 23.1992C52.748 23.2969 52.7383 23.4531 52.7188 23.668C52.7188 23.8047 52.7285 24.0293 52.748 24.3418C52.7676 24.6348 52.7578 24.8301 52.7188 24.9277C52.7188 25.084 52.7188 25.1914 52.7188 25.25C52.6602 25.3867 52.6504 25.4844 52.6895 25.543C52.748 25.582 52.7578 25.6309 52.7188 25.6895C52.6602 25.7285 52.6211 25.8262 52.6016 25.9824C52.6016 26.1191 52.6016 26.2754 52.6016 26.4512C52.6016 26.6074 52.6016 26.7637 52.6016 26.9199C52.6211 27.0762 52.6309 27.1934 52.6309 27.2715C52.7285 27.2324 52.7969 27.1641 52.8359 27.0664C52.875 26.9492 52.9531 26.8711 53.0703 26.832C53.1094 26.6172 53.1582 26.4707 53.2168 26.3926C53.2949 26.2949 53.3926 26.168 53.5098 26.0117C53.5098 25.9141 53.5293 25.8164 53.5684 25.7188C53.6074 25.6211 53.6172 25.5234 53.5977 25.4258C53.6953 25.3281 53.7832 25.1523 53.8613 24.8984C53.9395 24.625 53.998 24.4199 54.0371 24.2832C54.0566 24.1855 54.0566 24.0977 54.0371 24.0195C54.0371 23.9219 54.0566 23.8242 54.0957 23.7266C54.1543 23.5508 54.2031 23.375 54.2422 23.1992C54.2812 23.0234 54.3008 22.8379 54.3008 22.6426C54.4375 22.4668 54.5352 22.3008 54.5938 22.1445C54.5156 21.8516 54.5059 21.6172 54.5645 21.4414C54.6426 21.2461 54.6816 21.041 54.6816 20.8262C54.7012 20.7285 54.6914 20.6309 54.6523 20.5332C54.6328 20.416 54.6328 20.2988 54.6523 20.1816C54.6523 20.0645 54.6719 19.9473 54.7109 19.8301C54.75 19.7129 54.7793 19.5957 54.7988 19.4785C54.8379 19.166 54.8281 18.873 54.7695 18.5996C54.7305 18.3066 54.6914 18.0137 54.6523 17.7207C54.5742 17.3301 54.5156 16.9395 54.4766 16.5488C54.457 16.1582 54.418 15.7676 54.3594 15.377C54.3594 15.2988 54.3398 15.2305 54.3008 15.1719C54.2812 15.0938 54.2715 15.0156 54.2715 14.9375C54.252 14.8984 54.2422 14.8496 54.2422 14.791C54.2617 14.7324 54.2715 14.6738 54.2715 14.6152C54.2715 14.3809 54.2324 14.1953 54.1543 14.0586C54.1543 14.0195 54.1641 13.9707 54.1836 13.9121C54.2227 13.8535 54.252 13.7949 54.2715 13.7363C54.291 13.5605 54.291 13.3848 54.2715 13.209C54.252 13.0137 54.2617 12.8281 54.3008 12.6523C54.3398 12.5547 54.3691 12.4668 54.3887 12.3887C54.4277 12.291 54.457 12.1934 54.4766 12.0957C54.4766 12.0566 54.4668 12.0078 54.4473 11.9492C54.4277 11.8906 54.418 11.832 54.418 11.7734C54.5938 11.5195 54.6426 11.3242 54.5645 11.1875C54.4863 11.0508 54.4375 10.8848 54.418 10.6895C54.4766 10.4746 54.4863 10.3086 54.4473 10.1914C54.4277 10.0742 54.418 9.9668 54.418 9.86914C54.4375 9.53711 54.4668 9.21484 54.5059 8.90234C54.5449 8.58984 54.5156 8.27734 54.418 7.96484C54.2031 7.98437 53.9785 8.00391 53.7441 8.02344C53.5293 8.04297 53.3145 8.0625 53.0996 8.08203C53.0215 8.08203 52.9434 8.0918 52.8652 8.11133C52.7871 8.13086 52.709 8.13086 52.6309 8.11133Z" fill="white"/>
<path d="M36.1268 20.4722C36.1681 20.6867 36.2476 20.8131 36.3652 20.8513C36.463 20.8702 36.5613 20.928 36.66 21.025C36.8559 21.0821 37.0028 21.1201 37.1007 21.139C37.1985 21.1578 37.2865 21.1669 37.3646 21.1663C37.4428 21.1658 37.5307 21.1651 37.6283 21.1644C37.7258 21.1442 37.8622 21.1139 38.0375 21.0735C38.0959 21.0536 38.1642 21.0433 38.2423 21.0428C38.3009 21.0423 38.3594 21.0321 38.4178 21.0122C38.4778 21.1485 38.4987 21.2753 38.4804 21.3926C38.4621 21.5099 38.4634 21.6369 38.4844 21.7734C38.4476 21.9885 38.4588 22.1252 38.518 22.1834C38.5575 22.2221 38.5777 22.2903 38.5787 22.388C38.5997 22.5246 38.5914 22.6613 38.5538 22.7983C38.5159 22.9158 38.4979 23.0527 38.4995 23.2089C38.5001 23.2675 38.5105 23.326 38.5307 23.3845C38.5508 23.4429 38.5613 23.5112 38.5621 23.5893C38.5432 23.648 38.5243 23.7068 38.5054 23.7655C38.4667 23.8049 38.4477 23.8538 38.4483 23.9124C38.4491 23.9905 38.4597 24.0686 38.4801 24.1466C38.5004 24.2245 38.5111 24.3124 38.5122 24.41C38.513 24.4881 38.5039 24.5566 38.485 24.6153C38.4661 24.674 38.4571 24.7424 38.4579 24.8206C38.4581 24.8401 38.4685 24.8986 38.489 24.9961C38.5096 25.0936 38.5302 25.1911 38.5507 25.2887C38.5713 25.3862 38.6016 25.4836 38.6417 25.581C38.6623 25.6785 38.6726 25.737 38.6728 25.7565C38.7129 25.8539 38.7529 25.9415 38.7928 26.0193C38.8132 26.0973 38.7947 26.1951 38.7373 26.3127C38.7389 26.4689 38.7504 26.6251 38.7715 26.7812C38.7925 26.9178 38.8038 27.0642 38.8055 27.2204C38.8071 27.3767 38.8279 27.4937 38.8678 27.5715C38.9076 27.6494 38.9281 27.7371 38.9291 27.8348C38.815 28.1286 38.7685 28.3438 38.7894 28.4803C38.7907 28.5975 38.743 28.7053 38.6464 28.8037C38.6871 28.9596 38.6887 29.1159 38.6513 29.2724C38.6139 29.4289 38.6058 29.5852 38.6269 29.7413C38.6487 29.956 38.65 30.0732 38.6306 30.0929C38.6113 30.1125 38.5921 30.142 38.573 30.1812C38.5345 30.24 38.5258 30.3378 38.5468 30.4743C38.548 30.5915 38.5393 30.6892 38.5206 30.7675C38.4651 31.0609 38.4192 31.3444 38.383 31.6181C38.3273 31.892 38.3205 32.1752 38.3627 32.4679C38.3837 32.6045 38.4239 32.7116 38.4833 32.7893C38.5232 32.8671 38.5244 32.9843 38.487 33.1408C38.4496 33.2974 38.4507 33.4048 38.4904 33.4631C38.5299 33.5019 38.5499 33.5506 38.5505 33.6091C38.5524 33.7849 38.5445 33.9608 38.5268 34.1367C38.4894 34.2932 38.5008 34.4494 38.561 34.6052C38.6809 34.8582 38.7318 35.0532 38.7137 35.19C38.6954 35.3073 38.6965 35.4148 38.7171 35.5123C38.7374 35.5902 38.7674 35.6584 38.8071 35.7167C38.8466 35.7555 38.8764 35.8041 38.8965 35.8625C38.8967 35.8821 38.9174 35.9893 38.9585 36.1844C38.9789 36.2623 38.9995 36.3696 39.0205 36.5062C39.0014 36.5454 39.0217 36.6136 39.0813 36.7108C39.1409 36.808 39.171 36.8859 39.1716 36.9445C39.2119 37.0614 39.2328 37.1882 39.2342 37.3249C39.2159 37.4423 39.2173 37.5692 39.2383 37.7058C39.2588 37.8033 39.2989 37.9007 39.3585 37.9979C39.3984 38.0757 39.3993 38.1636 39.3613 38.2615C39.4606 38.4171 39.5402 38.5532 39.6 38.67C39.6598 38.7867 39.6907 38.933 39.6925 39.1088C39.7906 39.1471 39.8499 39.215 39.8704 39.3125C39.8713 39.3907 39.8916 39.4686 39.9315 39.5465C39.9714 39.6243 40.0208 39.6826 40.0798 39.7212C40.1193 39.76 40.1591 39.828 40.1992 39.9254C40.2603 40.1593 40.3104 40.2859 40.3497 40.3052C40.3692 40.305 40.389 40.3244 40.4089 40.3633C40.4488 40.4412 40.4887 40.519 40.5285 40.5968C40.5684 40.6747 40.6082 40.7428 40.6479 40.8011C40.7863 40.9563 40.8556 41.0535 40.8561 41.0925C40.8563 41.1121 40.8761 41.1412 40.9156 41.18C40.9553 41.2383 41.0145 41.2965 41.0932 41.3545C41.1522 41.3931 41.2015 41.4416 41.2412 41.4999C41.3999 41.7331 41.5383 41.8884 41.6563 41.9656C41.7546 42.0235 41.8239 42.1109 41.8642 42.2278C42.0013 42.2659 42.1289 42.3235 42.2469 42.4008C42.3453 42.4782 42.4536 42.5555 42.5716 42.6328C42.8076 42.7873 42.9648 42.8741 43.0431 42.8931C43.1214 42.912 43.1999 42.9407 43.2784 42.9792C43.3569 43.0177 43.4257 43.0563 43.4847 43.0949C43.5244 43.1532 43.5835 43.2016 43.662 43.2401C43.7406 43.2786 43.8286 43.2877 43.926 43.2675C44.0237 43.2668 44.1214 43.2758 44.2193 43.2947C44.4541 43.332 44.6987 43.3791 44.9532 43.4358C45.1884 43.5122 45.433 43.5495 45.6869 43.5477C45.941 43.5653 46.1947 43.544 46.4479 43.4835C46.7012 43.4231 46.9553 43.4408 47.2103 43.5366C47.4234 43.3788 47.6667 43.2891 47.9399 43.2676C48.2131 43.2461 48.4664 43.1856 48.6997 43.0863C48.7581 43.0663 48.8164 43.0366 48.8746 42.9971C48.9132 42.9578 48.9616 42.9183 49.0198 42.8789C49.078 42.8394 49.1462 42.8193 49.2243 42.8188C49.2829 42.8184 49.3413 42.7984 49.3994 42.7589C49.5156 42.6604 49.6318 42.5717 49.7482 42.4927C49.8646 42.4137 49.9808 42.325 50.097 42.2265C50.2133 42.1475 50.3297 42.0685 50.4461 41.9896C50.5429 41.9107 50.6203 41.8418 50.6783 41.7828C50.7942 41.6648 50.8718 41.6154 50.9111 41.6346C50.9504 41.6539 50.9893 41.6438 51.028 41.6045C51.1429 41.3888 51.2489 41.2513 51.3459 41.192C51.4429 41.1327 51.53 41.0539 51.6071 40.9557C51.6651 40.8967 51.7518 40.7886 51.8674 40.6315C51.9827 40.4549 52.1078 40.2782 52.2427 40.1014C52.3773 39.9052 52.5023 39.7187 52.6176 39.5421C52.7135 39.3656 52.7708 39.248 52.7897 39.1892C52.828 39.1108 52.837 39.0424 52.8169 38.984C52.7965 38.906 52.8054 38.8278 52.8437 38.7494C52.9586 38.5337 53.0062 38.4162 52.9865 38.3968C52.9667 38.3774 52.9566 38.3482 52.9562 38.3091C52.9546 38.1529 52.9721 37.9574 53.0087 37.7228C53.045 37.4686 53.1112 37.263 53.2072 37.1061C53.0208 36.0918 52.922 35.0573 52.9109 34.0027C52.9686 33.9242 52.997 33.8361 52.996 33.7384C52.9949 33.6408 52.9841 33.5432 52.9636 33.4457C52.8857 33.4658 52.7875 33.4177 52.6691 33.3013C52.5507 33.185 52.4042 33.1861 52.2296 33.3045C52.0551 33.423 51.9494 33.5898 51.9126 33.8049C51.913 33.8439 51.9333 33.9122 51.9734 34.0095C52.0135 34.1069 52.0339 34.1946 52.0347 34.2728C52.0358 34.3704 52.0269 34.4584 52.0082 34.5366C51.9895 34.6149 51.9806 34.6931 51.9814 34.7712C52.0048 35.1421 52.0482 35.552 52.1116 36.0008C52.1747 36.43 52.1593 36.8207 52.0653 37.173C52.0464 37.2317 52.0275 37.2905 52.0086 37.3492C51.9895 37.3884 51.9704 37.4374 51.9515 37.4961C51.933 37.5939 51.9339 37.6818 51.9543 37.7597C51.9745 37.8182 51.9753 37.8963 51.9568 37.9941C51.8616 38.2292 51.8148 38.4248 51.8165 38.5811C51.8179 38.7178 51.7996 38.8351 51.7616 38.933C51.7618 38.9526 51.7331 39.0114 51.6755 39.1095C51.5982 39.1881 51.5211 39.2864 51.4443 39.4041C51.3676 39.5414 51.2715 39.6886 51.1559 39.8457C51.0205 39.9639 50.9338 40.0817 50.896 40.1991C50.7993 40.2975 50.7029 40.4154 50.6067 40.5528C50.4908 40.6708 50.3651 40.789 50.2296 40.9071C50.0941 41.0253 49.9683 41.1336 49.8521 41.2321C49.7164 41.3308 49.6097 41.3999 49.532 41.4396C49.3188 41.5974 49.1442 41.7061 49.0081 41.7656C48.8525 41.8254 48.775 41.8845 48.7756 41.9431C48.5607 41.9447 48.4439 41.9748 48.4249 42.0336C48.406 42.0923 48.348 42.1415 48.2507 42.1813C48.1535 42.2211 48.0462 42.2316 47.9288 42.213C47.8116 42.2138 47.6946 42.2342 47.5778 42.2741C47.4415 42.3142 47.3151 42.3639 47.1985 42.4234C47.0626 42.5025 46.9167 42.5524 46.7606 42.573C46.6825 42.5736 46.614 42.5643 46.5552 42.5452C46.4769 42.5263 46.3987 42.5171 46.3206 42.5176C46.2034 42.5185 46.0962 42.5388 45.9989 42.5786C45.8822 42.6185 45.7552 42.6194 45.6181 42.5813C45.4999 42.4845 45.4115 42.4364 45.3529 42.4368C45.2945 42.4567 45.236 42.4669 45.1774 42.4674C45.0014 42.4491 44.8645 42.4306 44.7666 42.4118C44.6688 42.3929 44.5806 42.3643 44.502 42.3258C44.4042 42.307 44.3062 42.2784 44.2082 42.24C44.1101 42.2017 43.9826 42.1538 43.8258 42.0963C43.7277 42.058 43.6297 42.0294 43.5319 42.0106C43.4338 41.9722 43.3453 41.9143 43.2664 41.8367C43.1683 41.7984 43.1384 41.74 43.1766 41.6616C43.2149 41.5832 43.2045 41.5247 43.1455 41.486C43.106 41.4473 43.0667 41.428 43.0277 41.4283C42.9689 41.4092 42.9195 41.3607 42.8796 41.2829C42.819 41.088 42.7779 40.893 42.7563 40.6978C42.7345 40.4831 42.7226 40.2781 42.7205 40.0828C42.679 39.8488 42.6575 39.6634 42.656 39.5267C42.6544 39.3704 42.6528 39.2142 42.6511 39.0579C42.6501 38.9603 42.6589 38.8723 42.6776 38.7941C42.6961 38.6963 42.7049 38.5985 42.7038 38.5009C42.6037 38.2672 42.5631 38.1211 42.582 38.0623C42.5814 38.0037 42.5808 37.9451 42.5802 37.8866C42.5596 37.789 42.539 37.6915 42.5185 37.594C42.4784 37.4967 42.4578 37.3991 42.4568 37.3015C42.4556 37.1843 42.4742 37.0963 42.5126 37.0374C42.5509 36.959 42.5303 36.8615 42.4509 36.7449C42.5469 36.5879 42.5453 36.4317 42.446 36.2762C42.4448 36.159 42.4729 36.0514 42.5305 35.9533C42.5683 35.8358 42.5769 35.7186 42.5561 35.6015C42.515 35.4065 42.5136 35.2796 42.5521 35.2207C42.5708 35.1424 42.5894 35.0544 42.6079 34.9566C42.6254 34.7612 42.6234 34.5756 42.602 34.4C42.5611 34.2245 42.5397 34.0489 42.5379 33.8731C42.5161 33.6584 42.5237 33.4533 42.5607 33.2577C42.5779 33.0427 42.5855 32.8278 42.5832 32.613C42.5809 32.3981 42.5591 32.1835 42.5178 31.9689C42.4763 31.7348 42.4544 31.5104 42.4521 31.2955C42.4509 31.1784 42.4594 31.0611 42.4777 30.9438C42.496 30.8265 42.5045 30.7092 42.5033 30.592C42.5023 30.4944 42.4916 30.4066 42.4712 30.3286C42.4507 30.2311 42.4399 30.1335 42.4388 30.0359L42.4308 29.2742C42.4302 29.2156 42.4394 29.1667 42.4586 29.1275C42.4775 29.0688 42.4866 29.0101 42.486 28.9515C42.443 28.5807 42.4305 28.3171 42.4484 28.1607C42.466 27.9848 42.4542 27.7896 42.4129 27.575C42.3928 27.5166 42.3921 27.458 42.411 27.3993C42.43 27.3405 42.4488 27.272 42.4675 27.1938C42.5039 26.9396 42.5207 26.6856 42.518 26.4317C42.4958 26.1779 42.4736 25.9242 42.4514 25.6704C42.4103 25.4754 42.3892 25.3291 42.3882 25.2314C42.3876 25.1728 42.4065 25.1141 42.4449 25.0552C42.4639 24.9965 42.4827 24.928 42.5014 24.8497C42.4574 24.3813 42.4527 23.9419 42.4875 23.5315C42.522 23.1015 42.5468 22.6716 42.5618 22.2418C42.579 22.0268 42.5867 21.8217 42.5846 21.6264C42.563 21.4312 42.5707 21.2359 42.6077 21.0403C42.8814 21.0578 43.165 21.0948 43.4585 21.1513C43.7519 21.1882 44.0352 21.1959 44.3084 21.1744C44.367 21.174 44.4255 21.1638 44.4839 21.1438C44.5228 21.124 44.5716 21.1237 44.6304 21.1428C44.7476 21.1419 44.8553 21.1704 44.9536 21.2283C45.0321 21.2668 45.1493 21.2659 45.3051 21.2257C45.4015 21.1079 45.4979 20.9802 45.5941 20.8428C45.6903 20.7054 45.6399 20.5592 45.443 20.4044C45.1486 20.2698 44.8841 20.1936 44.6495 20.1758C44.3954 20.1581 44.1713 20.2086 43.9772 20.3272C43.8206 20.2893 43.6542 20.2612 43.4783 20.2429C43.3023 20.2247 43.136 20.1966 42.9793 20.1587C42.8623 20.179 42.7353 20.1702 42.5981 20.1321C42.4415 20.0942 42.3142 20.0658 42.2164 20.047C41.8255 20.0303 41.435 20.0429 41.0448 20.0848C40.6546 20.1267 40.2638 20.1101 39.8724 20.0348C39.8724 20.0348 39.7942 20.0354 39.638 20.0365C39.4816 20.0181 39.3154 20.0095 39.1397 20.0108C38.9441 19.9927 38.7683 19.9842 38.612 19.9854C38.4558 19.9865 38.3679 19.9871 38.3484 19.9873C38.2116 19.9883 38.085 20.0185 37.9684 20.0779C37.8517 20.1178 37.7249 20.1383 37.5882 20.1393C37.3536 20.1215 37.2268 20.1322 37.2077 20.1714C37.1688 20.1912 37.1298 20.2012 37.0908 20.2015C36.9738 20.2219 36.8565 20.213 36.7389 20.1748C36.6211 20.117 36.5038 20.1081 36.3871 20.148C36.2715 20.3051 36.1848 20.4132 36.1268 20.4722ZM41.4081 21.1955C41.4486 21.3319 41.489 21.4586 41.5293 21.5755C41.5501 21.6925 41.5708 21.8096 41.5916 21.9266C41.5922 21.9852 41.5831 22.0439 41.5642 22.1026C41.5451 22.1418 41.5358 22.1907 41.5364 22.2493C41.5379 22.386 41.5585 22.4933 41.5984 22.5711C41.6188 22.6491 41.6004 22.7566 41.5432 22.8938C41.6234 23.0885 41.6348 23.2447 41.5774 23.3623C41.5006 23.48 41.4532 23.6171 41.4353 23.7735C41.4176 23.9494 41.4292 24.1251 41.4701 24.3006C41.4915 24.4762 41.4835 24.6423 41.4461 24.7988C41.4085 24.9358 41.4094 25.0237 41.4489 25.0625C41.4688 25.1014 41.4694 25.16 41.4507 25.2383C41.4156 25.6096 41.4185 25.883 41.4594 26.0585C41.5003 26.234 41.4727 26.4002 41.3767 26.5572C41.4951 26.6735 41.5257 26.7905 41.4683 26.9081C41.4108 27.0062 41.3827 27.1236 41.3841 27.2603C41.4255 27.4748 41.4466 27.6309 41.4477 27.7286C41.4292 27.8264 41.4204 27.9241 41.4215 28.0217C41.4426 28.1778 41.4346 28.3439 41.3974 28.52C41.36 28.6765 41.342 28.8231 41.3435 28.9598C41.4845 29.369 41.5176 29.73 41.4428 30.0431C41.3482 30.3368 41.371 30.6491 41.5112 30.9801C41.4146 31.0785 41.3863 31.1763 41.4264 31.2737C41.4665 31.3711 41.4773 31.4687 41.4588 31.5665C41.48 31.7226 41.4811 31.83 41.4622 31.8887C41.4433 31.9474 41.4342 32.0061 41.4348 32.0647C41.4757 32.2402 41.4867 32.3573 41.4678 32.416C41.4293 32.4749 41.4203 32.5433 41.4406 32.6213C41.4415 32.6994 41.4618 32.7774 41.5017 32.8552C41.5218 32.9137 41.5323 32.982 41.5332 33.0601C41.5539 33.1771 41.5748 33.3039 41.5958 33.4405C41.6165 33.5575 41.6179 33.6845 41.5998 33.8213C41.6006 33.8995 41.5917 33.9776 41.573 34.0559C41.5345 34.1148 41.5059 34.1834 41.4872 34.2616C41.5281 34.4371 41.5292 34.5348 41.4903 34.5546C41.4319 34.5745 41.4322 34.6038 41.4912 34.6425C41.5509 34.7397 41.5614 34.8177 41.523 34.8766C41.4844 34.9159 41.4655 34.9844 41.4666 35.0821C41.4479 35.1604 41.4584 35.2286 41.498 35.2869C41.5182 35.3454 41.4896 35.414 41.4123 35.4927C41.4166 35.9028 41.4292 36.1664 41.4499 36.2834C41.451 36.3811 41.4624 36.5372 41.4842 36.7519C41.4856 36.8886 41.4782 37.1133 41.462 37.4259C41.4455 37.719 41.4574 37.9143 41.4974 38.0116C41.4991 38.1679 41.5002 38.2753 41.5008 38.3339C41.5609 38.4702 41.5717 38.5677 41.5332 38.6266C41.475 38.6661 41.4658 38.715 41.5055 38.7733C41.5645 38.8119 41.6046 38.9093 41.6257 39.0654C41.6272 39.2021 41.6288 39.3583 41.6307 39.5341C41.6323 39.6904 41.634 39.8466 41.6356 40.0028C41.6177 40.1592 41.6092 40.2765 41.61 40.3546C41.512 40.3163 41.4429 40.2484 41.4028 40.151C41.3625 40.0341 41.2836 39.9566 41.166 39.9184C41.1246 39.7038 41.0743 39.5577 41.0149 39.48C40.9357 39.3829 40.8367 39.2567 40.7179 39.1013C40.7168 39.0036 40.6963 38.9061 40.6562 38.8088C40.6161 38.7114 40.6053 38.6138 40.6238 38.516C40.5251 38.4191 40.4354 38.244 40.3546 37.9906C40.2736 37.7178 40.2128 37.5131 40.1723 37.3767C40.1518 37.2792 40.1508 37.1913 40.1696 37.1131C40.1685 37.0154 40.148 36.9179 40.1079 36.8205C40.0474 36.6452 39.9967 36.4698 39.9558 36.2943C39.9149 36.1188 39.8934 35.9334 39.8914 35.7381C39.7528 35.5633 39.6534 35.398 39.5932 35.2422C39.6682 34.9487 39.6755 34.7143 39.6151 34.5389C39.5349 34.3442 39.4936 34.1394 39.4914 33.9246C39.4708 33.8271 39.4796 33.7293 39.5176 33.6314C39.5359 33.5141 39.5347 33.3969 39.5139 33.2799C39.5127 33.1627 39.4919 33.0456 39.4516 32.9287C39.4113 32.8118 39.3808 32.6949 39.36 32.5778C39.3176 32.2656 39.3243 31.9726 39.38 31.6988C39.416 31.4055 39.452 31.1123 39.488 30.8191C39.562 30.4279 39.6164 30.0369 39.6514 29.646C39.6668 29.2552 39.7017 28.8643 39.7562 28.4733C39.7554 28.3952 39.7742 28.3267 39.8126 28.2678C39.8314 28.1895 39.8403 28.1114 39.8395 28.0332C39.8586 27.994 39.8678 27.9451 39.8672 27.8865C39.8471 27.8281 39.8367 27.7696 39.8361 27.711C39.8336 27.4766 39.8707 27.2908 39.9474 27.1535C39.947 27.1145 39.9367 27.0657 39.9166 27.0073C39.8769 26.949 39.847 26.8906 39.8268 26.8321C39.8054 26.6565 39.8036 26.4807 39.8213 26.3048C39.8387 26.1094 39.827 25.9239 39.7861 25.7484C39.746 25.6511 39.7158 25.5634 39.6954 25.4854C39.6553 25.388 39.625 25.2906 39.6045 25.1931C39.604 25.154 39.6133 25.1051 39.6322 25.0464C39.6511 24.9877 39.6603 24.929 39.6596 24.8704C39.4812 24.6178 39.4303 24.4229 39.507 24.2856C39.5837 24.1483 39.6308 23.9819 39.6482 23.7865C39.5874 23.5721 39.5759 23.4062 39.6137 23.2887C39.632 23.1714 39.6406 23.0639 39.6396 22.9662C39.6166 22.6344 39.5839 22.3123 39.5415 22.0001C39.4991 21.6879 39.5252 21.3752 39.6195 21.062C39.8346 21.08 40.0594 21.0979 40.2939 21.1157C40.509 21.1337 40.724 21.1517 40.9391 21.1696C41.0172 21.1691 41.0954 21.1783 41.1737 21.1972C41.2521 21.2162 41.3302 21.2156 41.4081 21.1955Z" fill="white"/>
</svg>
